<svg width="90" height="90" fill="#9a22f7" viewBox="0 0 24 24" xmlns="http://www.w3.org/2000/svg">
  <path d="M10 3h2v1.322a6.827 6.827 0 0 1 1.807.115c-2.35.925-3.432 3.302-3.609 3.692l-.01.024c-.575-.088-1.197-.16-1.786-.155-.606.052-1.195.142-2.165.688a5.317 5.317 0 0 0-.571.496c-.018-.013-.038-.025-.063-.04l-.076-.049a5.79 5.79 0 0 0-.587-.335c-.507-.252-1.13-.467-1.74-.467V6.352c1.055 0 2.004.358 2.651.68.225.111.422.223.585.322.145-.308.335-.595.563-.86L5.9 4.772l1.76-1.143 1.013 1.59A7.958 7.958 0 0 1 10 4.684V3Z"></path>
  <path d="M15.378 7.347c-.729.338-1.36.894-1.928 1.963 0 0-1.262-.578-2.286-.877.786-1.593 1.7-2.49 3.049-3.115 1.304-.604 2.86-.76 4.708-.695l-.087 2.379c-1.706-.059-2.683-.013-3.456.345Z"></path>
  <path d="M6.64 9.61c-3.63 3.24 1.557 11.337 5.707 11.337s9.865-8.09 5.706-11.8c-.096-.085-.18-.162-.258-.233a6 6 0 0 0-1.206-.902c-1.276 0-2.045 1.276-2.395 2.054a.58.58 0 0 1-.066.11l-.807 2.245-.29 1.045a.5.5 0 0 0 .022.332l.34.785 1.759-.204.115.994-1.654.192.107 1.575-.997.069-.135-1.966-.453-1.048a1.5 1.5 0 0 1-.068-.998l.009-.031-1.017.46-.665 1.68-.93-.367.527-1.331-1.606-.379.23-.973 2.002.472 1.829-.827.614-1.71c-1.584-.744-4.836-1.992-6.42-.58Z"></path>
</svg>